<svg xmlns="http://www.w3.org/2000/svg" viewBox="0 0 400 300" width="400" height="300">
  <defs>
    <style>
      .bubble-text {
        font-family: Arial, sans-serif;
        font-size: 14px;
        text-anchor: middle;
        dominant-baseline: middle;
        fill: #333;
      }
      .bubble-title {
        font-family: Arial, sans-serif;
        font-size: 16px;
        font-weight: bold;
        text-anchor: middle;
        dominant-baseline: middle;
        fill: #333;
      }
    </style>
  </defs>
  
  <!-- Main bubble -->
  <path d="M 80 60 
           C 80 40, 100 20, 120 20
           L 280 20
           C 300 20, 320 40, 320 60
           C 330 50, 350 60, 350 80
           C 360 90, 350 110, 340 110
           L 340 140
           C 340 160, 320 180, 300 180
           L 200 180
           C 180 180, 160 160, 160 140
           L 120 140
           C 100 140, 80 120, 80 100
           C 70 90, 70 70, 80 60 Z" 
        fill="white" 
        stroke="#333" 
        stroke-width="4"/>
  
  <!-- Small bubble -->
  <circle cx="110" cy="210" r="15" fill="white" stroke="#333" stroke-width="4"/>
  
  <!-- Medium bubble -->
  <circle cx="80" cy="240" r="20" fill="white" stroke="#333" stroke-width="4"/>
  
  <!-- Large bubble -->
  <circle cx="50" cy="270" r="12" fill="white" stroke="#333" stroke-width="4"/>
  
  <!-- Text content -->
  <text x="200" y="70" class="bubble-title">Hi there, I'm Mike Suarez.</text>
  
  <text x="200" y="95" class="bubble-text">This is my personal website, it is a</text>
  <text x="200" y="110" class="bubble-text">collection of things I like. Which, in a</text>
  <text x="200" y="125" class="bubble-text">way, should give an idea of whom I am.</text>
  
  <text x="200" y="150" class="bubble-text">There's a lot of computer stuff since I</text>
  <text x="200" y="165" class="bubble-text">consider myself a natural born</text>
  <text x="200" y="180" class="bubble-text">programmer.</text>
</svg>